<?xml version="1.0" encoding="UTF-8"?>
<svg xmlns="http://www.w3.org/2000/svg" width="205" height="329" viewBox="0 0 205 329" fill="none">
  <path d="M204.03 95.8828C204.03 87.3567 199.507 79.4706 192.147 75.166L129.499 38.5247L91.0866 16.0521C75.087 6.69171 54.9673 18.2308 54.9673 36.7674V69.283V143.657V204.253C54.9673 212.779 59.4908 220.665 66.8506 224.97L129.499 261.611L167.911 284.084C183.91 293.444 204.03 281.905 204.03 263.368V230.853V230.84V156.478V95.8828Z" fill="url(#paint0_linear_12095_26213)"></path>
  <path d="M74.7412 66.4097V126.955C74.7412 135.484 79.2671 143.372 86.63 147.675L149.273 184.291L74.7412 66.4097Z" fill="#A053CF"></path>
  <path d="M149.272 184.624L86.958 147.989C79.6245 143.678 75.1213 135.807 75.1213 127.3V66.6656L37.1361 44.3279C21.1368 34.9193 0.970215 46.4552 0.970215 65.0159V97.4251V115.203V171.79V232.437C0.970215 240.944 5.47346 248.815 12.8069 253.126L75.1213 289.761L113.109 312.094C129.108 321.5 149.272 309.963 149.272 291.404V258.989V184.624Z" fill="url(#paint1_linear_12095_26213)"></path>
  <defs>
    <linearGradient id="paint0_linear_12095_26213" x1="277.372" y1="412.624" x2="-6.14583" y2="158.958" gradientUnits="userSpaceOnUse">
      <stop offset="0.147233" stop-color="#EF59A5"></stop>
      <stop offset="0.888921" stop-color="#FD9D60"></stop>
    </linearGradient>
    <linearGradient id="paint1_linear_12095_26213" x1="-162.898" y1="601.434" x2="142.407" y2="55.7712" gradientUnits="userSpaceOnUse">
      <stop offset="0.496441" stop-color="#A053CF"></stop>
      <stop offset="1" stop-color="#EF59A5"></stop>
    </linearGradient>
  </defs>
</svg>
